<?xml version="1.0" encoding="iso-8859-1"?>
<svg xmlns="http://www.w3.org/2000/svg" width="272" height="68" viewBox="0 0 272 68" fill="none" foxified="">
    <g clip-path="url(#clip0_25_9951)">
    <path d="M0 7.02246H8.73234C13.2217 7.02246 16.0029 10.098 16.0029 13.7343C16.0029 15.9498 15.1707 17.4685 13.7089 18.5082C16.0029 19.4772 17.6727 21.4804 17.6727 24.5287C17.6727 28.8182 14.2291 31.5835 9.46596 31.5835H0V7.02246ZM8.20675 17.3651C10.6759 17.3651 11.9296 15.9117 11.9296 14.0446C11.9296 12.1774 10.6759 10.724 8.20675 10.724H4.03494V17.3651H8.20675ZM9.46049 27.8438C12.2417 27.8438 13.5995 26.3577 13.5995 24.3491C13.5995 22.3404 12.2417 20.789 9.46049 20.789H4.03494V27.8438H9.46049Z" fill="#1D1D21"/>
    <path d="M21.2695 7.02246H25.3045V31.578H21.2695V7.02246Z" fill="#1D1D21"/>
    <path d="M30.3594 7.02246H39.0917C43.5811 7.02246 46.3623 10.098 46.3623 13.7343C46.3623 15.9498 45.5301 17.4685 44.0683 18.5082C46.3623 19.4772 48.0321 21.4804 48.0321 24.5287C48.0321 28.8182 44.5884 31.5835 39.8253 31.5835H30.3648V7.02246H30.3594ZM38.5661 17.3651C41.0353 17.3651 42.289 15.9117 42.289 14.0446C42.289 12.1774 41.0353 10.724 38.5661 10.724H34.3943V17.3651H38.5661ZM39.8199 27.8438C42.6011 27.8438 43.9588 26.3577 43.9588 24.3491C43.9588 22.3404 42.6011 20.789 39.8199 20.789H34.3943V27.8438H39.8199Z" fill="#1D1D21"/>
    <path d="M51.6445 7.02246H55.6795V27.6043H66.0816V31.5835H51.6445V7.02246Z" fill="#1D1D21"/>
    <path d="M68.6914 7.02246H72.7263V31.578H68.6914V7.02246Z" fill="#1D1D21"/>
    <path d="M76.0391 19.2968C76.0391 12.204 81.6726 6.74414 88.664 6.74414C95.6553 6.74414 101.289 12.2094 101.289 19.2968C101.289 26.3842 95.6882 31.8495 88.664 31.8495C81.6398 31.8495 76.0391 26.3842 76.0391 19.2968ZM97.1883 19.2968C97.1883 14.3868 93.5366 10.5437 88.664 10.5437C83.7914 10.5437 80.1397 14.3813 80.1397 19.2968C80.1397 24.2123 83.7914 28.0445 88.664 28.0445C93.5366 28.0445 97.1883 24.2068 97.1883 19.2968ZM85.8499 19.2968C85.8499 17.74 87.1037 16.4934 88.6695 16.4934C90.2353 16.4934 91.489 17.74 91.489 19.2968C91.489 20.8537 90.2353 22.1002 88.6695 22.1002C87.1037 22.1002 85.8499 20.8537 85.8499 19.2968Z" fill="#1D1D21"/>
    <path d="M107.965 10.9635H101.598V7.02246H118.4V10.9635H112V31.578H107.965V10.9635Z" fill="#1D1D21"/>
    <path d="M120.844 7.02246H124.879V17.1909H137.126V7.02246H141.161V31.578H137.126V21.0612H124.879V31.578H120.844V7.02246Z" fill="#1D1D21"/>
    <path d="M146.27 7.02209H160.915V10.9632H150.304V17.1905H158.829V21.0663H150.304V27.6366H160.915V31.5776H146.27V7.02209ZM149.018 0H153.54L156.152 5.01345H153.124L149.018 0Z" fill="#1D1D21"/>
    <path d="M173.53 31.7134C167.48 30.8152 162.887 25.6929 162.887 19.2968C162.887 12.204 168.52 6.74414 175.512 6.74414C182.503 6.74414 188.137 12.2094 188.137 19.2968C188.137 25.731 183.543 30.8152 177.455 31.7134V37.9407H173.524V31.7134H173.53ZM177.461 27.8376C181.32 26.9721 184.036 23.5482 184.036 19.2968C184.036 14.3868 180.384 10.5437 175.512 10.5437C171.34 10.5437 168.066 13.3797 167.195 17.2882H177.455V27.8376H177.461ZM167.201 21.2293C167.863 24.5498 170.3 27.0756 173.53 27.8376V21.2293H167.201Z" fill="#1D1D21"/>
    <path d="M191.312 22.0301V7.02246H195.347V22.139C195.347 25.944 197.745 28.0506 201.26 28.0506C204.775 28.0506 207.14 25.9386 207.14 22.139V7.02246H211.175V22.0356C211.175 28.0887 207.069 31.8556 201.26 31.8556C195.451 31.8556 191.312 28.0833 191.312 22.0356V22.0301Z" fill="#1D1D21"/>
    <path d="M216.043 7.02246H230.688V10.9635H220.078V17.1909H228.602V21.0667H220.078V27.6369H230.688V31.578H216.043V7.02246Z" fill="#1D1D21"/>
    <path d="M95.1289 43.167H102.958C110.332 43.167 115.9 48.4907 115.9 55.4475C115.9 62.4043 110.332 67.728 102.958 67.728H95.1289V43.1724V43.167ZM102.958 63.9883C108.279 63.9883 111.794 60.2868 111.794 55.4475C111.794 50.6082 108.279 46.9067 102.958 46.9067H99.1639V63.9938H102.958V63.9883Z" fill="#1D1D21"/>
    <path d="M119.52 43.167H134.165V47.1081H123.554V53.3354H132.079V57.2112H123.554V63.7815H134.165V67.7226H119.52V43.167Z" fill="#1D1D21"/>
    <path d="M145.016 55.4423C145.016 48.3495 150.649 42.8896 157.641 42.8896C161.155 42.8896 164.391 44.0981 166.652 46.4497L164.046 49.2857C162.513 47.6581 160.082 46.6892 157.646 46.6892C152.773 46.6892 149.122 50.5269 149.122 55.4423C149.122 60.3578 152.773 64.1954 157.646 64.1954C159.453 64.1954 161.298 63.7436 162.688 62.8781V57.206H155.905L157.679 53.3303H166.723V64.8487C164.429 66.8192 161.123 67.995 157.646 67.995C150.655 67.995 145.021 62.5297 145.021 55.4423H145.016Z" fill="#1D1D21"/>
    <path d="M171.461 43.167H186.106V47.1081H175.496V53.3354H184.02V57.2112H175.496V63.7815H186.106V67.7226H171.461V43.167Z" fill="#1D1D21"/>
    <path d="M194.062 52.0565V67.7228H190.027V42.8896L206.901 58.8336V43.1673H210.936V68.0004L194.062 52.0565Z" fill="#1D1D21"/>
    <path d="M216.035 43.1666H230.68V47.1077H220.07V53.3351H228.594V57.2108H220.07V63.7811H230.68V67.7222H216.035V43.1666ZM218.784 36.1445H223.306L225.917 41.158H222.89L218.784 36.1445Z" fill="#1D1D21"/>
    <path d="M232.285 43.167H236.736L243.728 58.8714L250.752 43.167H255.17L243.728 68.0002L232.285 43.167Z" fill="#1D1D21"/>
    <path d="M257.355 43.167H272.001V47.1081H261.39V53.3354H269.915V57.2112H261.39V63.7815H272.001V67.7226H257.355V43.167Z" fill="#1D1D21"/>
    </g>
    <defs>
    <clipPath id="clip0_25_9951">
    <rect width="272" height="68" fill="white"/>
    </clipPath>
    </defs>
    </svg>